<?xml version="1.0" standalone="no"?>
<!DOCTYPE svg PUBLIC "-//W3C//DTD SVG 20010904//EN"
 "http://www.w3.org/TR/2001/REC-SVG-20010904/DTD/svg10.dtd">
<svg version="1.0" xmlns="http://www.w3.org/2000/svg"
 width="425.000000pt" height="425.000000pt" viewBox="0 0 425.000000 425.000000"
 preserveAspectRatio="xMidYMid meet">
<metadata>
Created by potrace 1.11, written by Peter Selinger 2001-2013
</metadata>
<g transform="translate(0.000000,425.000000) scale(0.100000,-0.100000)"
fill="#000000" stroke="none">
<path d="M1808 3801 c-12 -8 -18 -9 -14 -3 4 7 2 12 -3 12 -6 0 -11 -4 -11 -8
0 -5 -10 -8 -22 -7 -35 3 -67 -15 -61 -34 3 -13 2 -12 -7 2 -11 16 -13 16 -42
-5 -18 -12 -28 -17 -24 -10 13 21 -44 -6 -66 -31 -11 -12 -16 -16 -13 -9 6 11
3 12 -14 3 -11 -7 -21 -16 -21 -22 0 -6 -4 -7 -10 -4 -5 3 -10 -1 -10 -9 0 -9
-6 -13 -14 -10 -9 3 -21 -5 -31 -20 -10 -14 -21 -24 -25 -21 -8 5 -52 -40 -67
-68 -8 -16 -10 -16 -30 3 -15 14 -23 16 -26 7 -3 -7 -6 -4 -6 7 -1 13 -6 17
-21 13 -13 -3 -20 0 -20 9 0 8 -6 11 -15 8 -8 -4 -15 -1 -15 5 0 6 -5 11 -11
11 -5 0 -7 -4 -4 -10 3 -5 1 -10 -4 -10 -6 0 -11 5 -11 11 0 6 -7 8 -16 5 -8
-3 -13 -2 -10 2 3 5 -7 9 -22 10 -15 1 -36 2 -47 3 -41 3 -56 -1 -49 -13 5 -8
0 -7 -11 2 -17 14 -18 13 -12 -2 3 -10 2 -20 -4 -23 -5 -4 -9 -3 -8 2 4 22 -3
30 -23 28 -13 -1 -23 -4 -23 -5 0 -1 -13 -3 -30 -5 -16 -1 -30 -3 -30 -4 0 -2
-11 -5 -25 -7 -14 -3 -26 -9 -28 -14 -2 -6 -8 -10 -13 -10 -6 0 -8 4 -5 8 3 5
-8 6 -24 4 -17 -2 -27 -9 -24 -16 3 -7 -5 -12 -18 -13 -18 -2 -20 0 -8 7 12 8
12 10 1 10 -8 0 -20 -8 -28 -17 -8 -10 -12 -12 -8 -5 3 6 1 12 -4 12 -6 0 -11
-6 -11 -12 0 -9 -3 -10 -8 -2 -10 16 -138 10 -134 -5 1 -7 -2 -10 -8 -6 -6 3
-8 10 -5 15 5 8 -18 20 -38 19 -7 0 -3 -4 8 -9 17 -7 16 -8 -8 -7 -18 1 -26 6
-23 14 3 7 -2 13 -10 13 -9 0 -13 -5 -9 -12 4 -7 -1 -4 -9 6 -9 11 -16 14 -16
8 0 -7 -4 -12 -10 -12 -5 0 -9 6 -7 13 1 6 -4 11 -10 10 -7 -2 -13 1 -13 5 0
12 -51 36 -69 33 -7 -1 -10 2 -6 8 6 11 -7 15 -34 12 -8 -2 -10 3 -5 11 4 7 3
9 -2 5 -13 -12 -13 -97 0 -90 6 4 5 0 -1 -9 -7 -8 -11 -17 -9 -19 2 -2 7 -31
10 -63 4 -32 8 -62 11 -66 4 -7 16 -58 17 -77 1 -10 5 -10 15 -1 11 9 12 7 7
-7 -6 -14 -4 -16 6 -10 9 5 11 4 6 -4 -4 -6 -12 -9 -17 -6 -5 4 -9 1 -9 -4 0
-6 4 -11 10 -11 5 0 14 -10 20 -22 11 -22 10 -22 -4 -4 -9 11 -16 15 -16 8 0
-6 10 -21 23 -33 12 -12 17 -19 10 -15 -7 4 -9 -1 -6 -15 3 -11 15 -25 27 -29
11 -5 15 -9 9 -9 -21 -1 -15 -17 19 -52 18 -18 25 -27 15 -20 -15 12 -17 12
-12 -1 4 -9 16 -21 28 -27 19 -10 19 -11 2 -6 -17 4 -16 2 5 -16 14 -11 18
-18 10 -14 -8 4 -4 -3 10 -15 14 -12 18 -18 10 -14 -13 7 -13 6 -1 -10 11 -13
16 -14 22 -4 4 6 5 16 2 22 -3 5 -1 6 5 2 9 -5 9 -13 2 -27 -12 -20 -5 -43 10
-34 5 3 12 0 16 -6 4 -7 3 -9 -4 -5 -6 3 -18 -2 -28 -11 -16 -16 -17 -16 -11
-1 4 12 2 15 -8 11 -8 -3 -12 -9 -9 -14 6 -10 15 -47 16 -67 1 -7 7 -11 15 -8
7 3 13 1 13 -4 0 -6 -5 -10 -10 -10 -6 0 -4 -10 5 -23 8 -13 12 -27 8 -30 -3
-4 -1 -7 6 -7 7 0 9 -4 6 -10 -3 -6 4 -10 17 -11 13 0 17 -3 11 -6 -7 -2 -13
-9 -13 -14 0 -6 5 -7 12 -3 8 5 9 2 5 -10 -5 -14 -3 -17 8 -13 18 7 30 -9 14
-19 -8 -5 -9 -3 -4 6 5 9 4 11 -4 6 -9 -6 -9 -11 0 -22 6 -7 15 -11 20 -8 5 3
6 -2 3 -10 -4 -9 1 -18 10 -22 9 -3 13 -11 9 -17 -3 -6 -1 -7 5 -3 11 6 16 -5
14 -26 -1 -3 5 -11 13 -18 12 -10 13 -8 10 9 -2 11 -1 22 3 25 4 2 8 -12 9
-31 2 -38 18 -63 40 -63 8 0 12 -4 9 -8 -6 -9 47 -62 62 -62 5 0 17 -11 26
-25 9 -14 21 -25 27 -25 6 0 20 -10 31 -22 11 -13 17 -17 13 -10 -3 6 -1 12 4
12 6 0 11 -6 11 -14 0 -20 57 -59 72 -50 10 6 10 5 1 -7 -17 -21 -11 -44 21
-76 40 -39 50 -61 28 -59 -10 0 -16 -6 -16 -16 1 -10 -2 -16 -6 -13 -4 2 -17
-7 -29 -21 -18 -20 -25 -23 -36 -14 -8 6 -18 9 -24 6 -5 -3 -11 1 -15 9 -3 8
-12 15 -21 15 -8 0 -15 5 -15 10 0 6 -7 10 -16 10 -8 0 -13 4 -10 8 6 10 -24
9 -41 -1 -6 -4 -13 -1 -16 5 -3 10 -7 10 -17 1 -7 -6 -19 -9 -26 -6 -10 4 -12
0 -7 -13 6 -16 4 -17 -8 -7 -13 10 -19 10 -35 -3 -18 -14 -18 -15 4 -4 12 6
22 8 22 5 0 -3 -17 -13 -37 -21 -28 -12 -33 -18 -22 -26 10 -7 7 -7 -10 -3
-21 6 -23 5 -18 -15 4 -17 3 -20 -5 -12 -8 8 -16 5 -28 -11 -30 -40 -60 -98
-48 -92 7 4 4 -1 -6 -9 -11 -9 -14 -16 -8 -16 7 0 12 -5 12 -10 0 -6 -6 -9
-13 -8 -6 2 -11 -2 -10 -9 1 -6 -5 -10 -15 -8 -9 1 -27 -2 -39 -6 -15 -6 -23
-5 -23 2 0 7 -10 9 -25 5 -14 -4 -25 -3 -25 2 0 5 -6 9 -12 10 -23 2 -43 7
-57 16 -10 6 -12 5 -7 -2 4 -7 1 -12 -6 -12 -7 0 -22 -12 -32 -27 -11 -14 -14
-23 -8 -19 7 4 12 2 12 -3 0 -6 -8 -11 -17 -11 -9 0 -13 -3 -10 -7 4 -3 -1
-15 -10 -26 -13 -15 -14 -19 -3 -13 9 5 8 2 -2 -7 -10 -8 -15 -17 -11 -20 3
-4 1 -7 -5 -7 -7 0 -12 -5 -12 -11 0 -5 6 -7 13 -4 6 4 3 -1 -7 -9 -15 -12
-16 -16 -5 -16 11 -1 10 -3 -3 -10 -11 -7 -15 -19 -12 -36 3 -16 1 -23 -6 -19
-5 3 -10 1 -10 -4 0 -6 6 -11 13 -11 8 0 7 -4 -3 -10 -11 -7 -11 -10 -2 -10 7
0 10 -5 7 -10 -4 -6 -10 -8 -14 -5 -15 9 -6 -36 9 -46 13 -9 13 -10 -2 -6 -20
7 -31 -16 -15 -33 7 -8 7 -10 1 -7 -7 4 -10 -15 -7 -61 5 -110 8 -130 16 -138
4 -5 5 -1 2 8 -4 9 -1 19 6 24 8 4 10 3 5 -5 -4 -6 -2 -19 5 -27 10 -12 10
-15 0 -12 -8 2 -15 -5 -16 -14 -2 -10 1 -18 7 -18 6 0 7 -7 4 -16 -5 -12 -2
-15 9 -10 12 4 14 2 7 -10 -10 -19 32 -112 54 -121 8 -3 11 -10 7 -16 -3 -5
-1 -7 5 -3 6 3 22 2 36 -4 20 -7 26 -6 26 5 0 7 5 17 12 21 8 5 9 2 5 -9 -3
-10 -2 -17 3 -17 6 0 10 5 10 11 0 5 4 8 9 5 9 -6 91 49 91 60 0 4 -7 0 -16
-7 -16 -13 -64 -25 -52 -13 3 3 12 6 20 8 25 4 69 39 64 52 -3 8 0 11 10 7 10
-4 12 0 7 13 -4 12 -3 15 5 10 7 -4 12 -1 12 8 0 8 5 18 12 22 7 5 8 3 3 -6
-5 -9 -4 -11 4 -6 7 5 9 16 5 29 -6 20 -5 20 10 8 15 -13 18 -12 23 7 3 12 9
19 14 16 5 -3 9 3 9 12 0 10 3 14 7 11 3 -4 17 8 30 25 12 18 23 28 23 23 0
-5 -8 -18 -17 -29 -18 -21 -18 -21 3 -4 11 10 24 18 29 18 4 0 14 8 22 18 8
10 11 11 7 2 -6 -12 -5 -13 7 -4 16 13 83 12 114 -1 32 -15 73 -55 86 -86 6
-17 24 -37 38 -45 14 -8 18 -13 8 -10 -12 4 -17 2 -14 -6 2 -7 9 -12 15 -11 6
2 9 -4 6 -11 -8 -20 14 -56 34 -57 14 0 14 -2 -3 -9 -11 -5 -14 -9 -7 -9 7 -1
12 -7 11 -13 -4 -31 2 -49 13 -42 8 5 9 2 5 -9 -4 -12 -1 -17 11 -17 15 0 15
-2 2 -10 -9 -6 -10 -10 -3 -10 7 0 10 -9 8 -21 -4 -18 -2 -19 12 -7 15 12 15
11 4 -9 -8 -17 -9 -28 -1 -43 6 -11 7 -20 3 -20 -4 0 1 -7 11 -15 13 -10 15
-15 6 -15 -9 0 -8 -5 6 -16 10 -8 14 -13 7 -10 -7 4 -9 -1 -6 -14 3 -11 9 -20
14 -20 5 0 5 -7 2 -17 -5 -12 -3 -14 7 -8 10 6 12 4 6 -10 -6 -16 -4 -16 11
-4 15 13 15 12 6 -6 -9 -15 -8 -22 5 -33 10 -7 11 -11 5 -7 -8 4 -11 1 -7 -9
5 -13 10 -13 27 -4 22 11 22 11 3 -11 -11 -11 -14 -21 -8 -21 7 0 12 -6 12
-14 0 -7 7 -19 15 -26 8 -7 12 -17 8 -23 -3 -5 -2 -7 4 -4 5 3 17 -9 26 -28 9
-19 23 -35 32 -35 8 0 15 -5 15 -11 0 -5 -5 -7 -12 -3 -7 5 -8 3 -4 -5 5 -7
14 -10 22 -7 9 3 11 0 7 -11 -4 -11 -2 -14 5 -9 7 4 12 1 12 -8 0 -15 12 -21
34 -17 5 1 6 -4 3 -12 -3 -7 5 -19 16 -27 19 -12 20 -11 10 2 -10 12 -10 15 2
15 8 0 12 -3 10 -7 -9 -14 26 -49 42 -43 10 4 14 2 10 -4 -4 -6 2 -13 13 -16
11 -3 18 -2 16 2 -3 4 4 7 14 7 14 0 16 -3 8 -13 -8 -10 -7 -12 6 -7 10 4 16
1 16 -7 0 -11 3 -11 10 1 9 13 10 13 10 0 0 -13 1 -13 10 0 6 10 10 11 10 3 0
-7 5 -13 11 -13 5 0 7 5 3 12 -5 7 -3 8 7 2 18 -11 60 -13 53 -2 -3 4 -1 8 5
8 5 0 12 -6 14 -12 4 -10 8 -10 15 1 5 7 14 11 19 8 6 -4 37 10 69 29 68 41
89 58 59 49 -12 -3 -10 -1 5 7 43 22 69 49 63 66 -5 11 -3 13 7 7 10 -6 12 -4
7 8 -4 12 -2 14 11 10 14 -5 14 -3 -3 18 -16 19 -16 21 -2 10 15 -12 20 -12
30 -1 10 10 9 11 -3 6 -9 -5 -9 -2 2 7 10 8 15 17 11 20 -3 4 -1 7 6 7 8 0 11
6 7 16 -3 8 -2 13 2 11 4 -3 16 7 26 21 11 14 15 22 9 19 -5 -3 -10 0 -10 7 0
9 7 12 16 8 9 -3 13 -2 9 3 -4 4 0 14 10 22 11 10 12 12 2 8 -8 -4 -5 2 8 13
14 13 20 27 16 39 -4 13 -3 15 4 4 8 -10 13 -9 25 10 9 12 14 26 11 31 -3 4 2
8 12 8 14 0 15 2 3 17 -11 13 -11 15 -1 9 18 -11 58 24 40 36 -10 6 -9 8 3 8
23 0 54 36 37 43 -7 3 -3 6 9 6 25 1 39 17 21 24 -8 3 -5 6 6 6 15 1 16 4 7
15 -9 11 -9 16 0 22 7 4 9 3 5 -4 -11 -19 14 -24 39 -8 16 11 22 22 19 34 -5
13 -4 14 4 3 11 -15 36 -5 26 10 -3 6 0 10 7 8 26 -3 40 1 35 10 -4 5 3 7 14
4 11 -3 20 -1 20 5 0 7 17 9 45 7 31 -3 45 -1 45 8 0 8 3 8 9 -2 5 -7 15 -11
22 -9 8 3 33 -6 57 -19 30 -18 42 -21 42 -11 1 7 7 2 15 -12 8 -14 15 -20 15
-15 0 6 5 3 10 -5 9 -13 11 -13 21 0 8 12 9 11 5 -6 -4 -14 2 -27 19 -42 27
-23 40 -29 30 -12 -4 6 1 7 11 3 11 -4 13 -8 6 -11 -7 -2 -12 -8 -12 -13 0 -6
4 -8 9 -5 5 3 11 -3 14 -14 3 -11 10 -20 17 -20 6 0 8 6 4 13 -4 6 -3 8 1 4
14 -12 15 -38 2 -31 -7 3 -3 -1 7 -10 10 -8 23 -13 29 -9 6 3 7 1 3 -5 -9 -16
76 -71 119 -77 26 -3 34 -1 28 8 -5 8 -2 8 9 -1 13 -10 19 -10 31 3 12 11 17
12 20 2 4 -9 6 -9 6 1 1 7 6 10 11 7 6 -3 10 -2 10 3 0 6 7 13 16 16 8 3 12 2
9 -4 -9 -14 7 -12 28 4 9 7 17 19 17 27 0 11 2 11 10 -1 9 -13 11 -13 19 0 7
9 6 20 -2 30 -7 9 -4 8 9 -3 20 -17 22 -17 28 -1 4 9 9 14 13 10 7 -7 53 33
53 46 0 5 -4 6 -10 3 -6 -3 -7 1 -3 10 5 13 8 14 15 3 6 -10 14 -7 34 16 14
16 23 35 20 42 -3 8 0 13 6 11 6 -1 18 10 27 26 14 24 14 29 1 38 -13 9 -13
10 1 6 21 -7 39 11 32 31 -4 10 -2 13 5 8 7 -4 13 -1 13 6 2 23 5 33 19 63 7
17 13 33 12 38 -1 4 3 7 9 7 8 0 7 6 -2 17 -8 9 -9 14 -3 10 16 -9 36 17 28
37 -4 11 -1 16 12 16 9 0 15 3 11 6 -3 4 1 13 9 21 8 8 12 18 9 23 -3 4 2 10
10 13 8 4 12 15 10 26 -2 11 1 24 7 27 7 4 8 2 4 -4 -4 -7 -2 -12 5 -12 6 0 9
8 6 19 -2 10 0 25 5 32 8 11 9 10 4 -3 -3 -10 -2 -18 2 -18 13 1 42 49 44 74
1 13 6 22 10 20 4 -3 5 -12 2 -22 -3 -9 3 -2 14 16 20 37 22 79 3 74 -7 -1
-10 2 -6 7 3 6 11 8 19 5 7 -3 13 2 13 11 0 8 -5 15 -11 15 -6 0 -3 7 7 14 12
9 14 16 7 21 -5 3 -7 11 -4 17 4 6 8 23 9 39 2 21 -2 29 -14 29 -9 0 -12 3 -6
8 15 11 17 32 3 32 -9 0 -8 4 2 10 11 7 12 10 2 10 -9 0 -11 7 -7 19 4 13 0
23 -12 30 -10 6 -12 11 -5 11 6 0 12 5 12 11 0 5 -5 7 -12 3 -7 -5 -9 0 -6 14
4 15 2 19 -8 15 -8 -3 -12 -8 -10 -12 3 -4 -4 -7 -15 -7 -18 0 -18 1 3 18 21
15 21 17 3 13 -11 -2 -20 -4 -20 -5 0 -1 -11 -3 -23 -4 -13 -2 -28 -9 -33 -17
-7 -11 -9 -11 -9 -1 0 7 -5 10 -10 7 -6 -4 -8 -10 -5 -15 3 -5 1 -12 -5 -15
-6 -4 -9 -1 -8 7 2 9 -8 13 -33 12 -29 0 -36 3 -31 14 3 9 1 13 -5 9 -7 -5 -9
0 -6 11 2 11 -3 26 -12 35 -8 9 -16 19 -15 22 1 20 -1 25 -9 21 -5 -4 -7 3 -4
14 4 17 2 19 -13 13 -16 -5 -17 -4 -7 8 9 11 8 18 -1 31 -7 10 -16 15 -19 11
-4 -3 -7 1 -7 10 0 9 -4 17 -10 17 -5 0 -10 6 -10 14 0 21 -21 31 -32 15 -7
-10 -7 -7 -3 9 4 12 3 22 -2 21 -4 -1 -12 0 -18 1 -17 5 -39 7 -84 9 l-44 1
59 31 c32 17 61 35 62 40 2 5 8 7 13 3 5 -3 9 -1 9 4 0 17 -13 22 -29 9 -14
-11 -14 -10 -2 6 10 13 17 15 27 6 16 -13 37 -2 27 14 -4 7 0 6 10 -2 9 -7 17
-9 17 -4 0 5 7 18 16 29 14 17 15 17 10 1 -5 -14 4 -11 34 13 22 17 47 41 55
53 9 12 18 21 20 19 9 -4 135 123 135 136 0 7 4 11 8 8 5 -3 15 6 22 19 7 14
17 25 22 25 5 0 6 5 3 10 -3 6 2 10 12 10 15 0 16 2 3 10 -13 8 -12 10 3 10
10 0 21 8 24 18 4 9 12 22 17 29 33 37 34 41 24 51 -7 7 -4 10 8 9 15 -2 18 4
16 28 -2 20 0 26 6 17 8 -11 10 -11 15 1 4 10 -4 13 -33 13 -30 -1 -38 2 -37
16 1 9 4 16 7 15 3 -1 27 18 53 43 33 30 47 50 43 63 -4 16 -2 16 12 5 14 -11
15 -10 9 5 -4 10 -3 16 2 13 4 -3 19 6 32 20 21 22 21 24 4 19 -20 -7 -20 -6
-1 9 11 9 23 16 28 16 4 0 4 7 1 17 -4 10 -2 14 4 10 15 -9 24 18 11 31 -8 8
-5 10 8 6 14 -3 24 5 36 31 12 24 14 35 6 35 -7 0 -4 6 7 13 10 8 15 19 11 25
-5 8 -1 10 11 5 16 -6 17 -5 3 12 -8 10 -10 16 -4 12 6 -3 19 12 31 37 16 33
18 47 10 62 -9 17 -9 18 6 5 20 -16 23 -1 5 18 -11 10 -9 11 6 5 13 -5 17 -4
12 4 -3 6 -2 14 4 17 6 4 8 16 4 27 -4 15 -3 18 7 13 9 -6 11 -4 6 8 -3 9 -2
19 4 22 5 4 7 11 4 16 -4 5 -1 9 5 9 7 0 9 8 5 19 -3 11 -1 22 5 26 6 3 8 11
5 16 -11 16 -32 10 -43 -13 -9 -19 -11 -20 -11 -5 -1 10 -5 16 -11 12 -5 -3
-7 -13 -4 -23 4 -11 3 -13 -3 -5 -9 13 -38 12 -50 -2 -4 -4 -2 -5 6 0 10 6 12
4 7 -4 -6 -9 -11 -9 -24 1 -10 9 -13 9 -9 1 7 -12 2 -13 -51 -14 -16 0 -22 -5
-18 -14 4 -11 0 -12 -17 -6 -27 9 -59 3 -52 -10 4 -5 1 -9 -4 -9 -6 0 -11 5
-11 10 0 21 -30 9 -31 -12 0 -17 -2 -19 -7 -8 -7 16 -25 20 -38 8 -4 -5 -12
-8 -18 -8 -6 0 -4 5 4 10 10 6 1 8 -28 5 -24 -2 -49 -8 -56 -14 -9 -7 -16 -7
-25 2 -9 9 -14 9 -21 -3 -7 -10 -10 -11 -10 -2 0 7 -12 12 -27 12 -16 0 -46 1
-68 2 -29 2 -39 -1 -37 -10 1 -8 -2 -11 -8 -7 -6 3 -7 11 -4 17 5 7 2 9 -8 6
-8 -4 -21 -2 -29 2 -8 5 -19 4 -28 -3 -12 -9 -13 -9 -7 1 4 7 1 12 -9 12 -9 0
-13 -4 -10 -10 3 -5 2 -10 -4 -10 -5 0 -11 4 -13 9 -5 15 -56 21 -62 8 -2 -7
-5 -4 -5 6 -1 9 -6 17 -12 17 -5 0 -8 -4 -5 -8 3 -5 -1 -9 -9 -9 -8 0 -12 4
-9 9 3 4 0 9 -5 9 -6 1 -17 2 -23 3 -7 1 -19 -2 -26 -7 -7 -6 -15 -7 -19 -3
-3 3 0 6 8 7 8 0 5 4 -6 8 -11 5 -25 4 -32 -1 -7 -6 -13 -6 -13 -1 0 4 -18 9
-41 10 -33 1 -38 -1 -29 -12 8 -9 8 -15 0 -20 -6 -4 -9 -1 -8 7 2 7 -3 12 -10
10 -8 -1 -11 2 -8 7 3 5 -2 12 -11 16 -10 3 -19 2 -21 -3 -2 -6 -12 -7 -24 -4
-14 3 -19 1 -14 -6 4 -7 2 -12 -3 -12 -6 0 -11 4 -11 9 0 6 -17 8 -37 5 -21
-3 -46 -6 -55 -7 -10 -1 -18 -8 -18 -17 0 -12 -2 -12 -9 -2 -11 18 -21 15 -50
-11 -13 -12 -21 -16 -17 -9 11 18 -5 15 -21 -5 -8 -10 -11 -12 -8 -5 6 11 3
12 -14 2 -12 -6 -25 -18 -28 -26 -4 -11 -10 -7 -24 16 -11 17 -24 28 -29 25
-6 -3 -10 0 -10 8 0 7 -11 24 -26 37 -21 21 -27 22 -35 10 -8 -12 -9 -10 -4 7
4 16 1 23 -15 28 -11 3 -20 10 -20 15 0 5 -10 15 -22 21 -19 9 -21 9 -10 -2
15 -16 16 -39 1 -39 -5 0 -7 4 -4 10 9 15 -22 56 -53 69 -25 10 -25 10 -8 -3
10 -9 24 -17 30 -19 6 -2 8 -7 5 -11 -3 -4 -20 6 -37 22 -19 17 -33 25 -36 18
-2 -6 -5 -4 -5 5 -1 9 -8 20 -17 23 -8 3 -13 2 -10 -3 4 -5 -3 -7 -15 -4 -16
5 -18 8 -7 15 9 6 6 7 -9 3 -14 -4 -23 -2 -23 5 0 6 -4 9 -9 5 -5 -3 -13 0
-16 6 -4 5 -13 8 -21 5 -8 -3 -14 -2 -14 3 0 4 -6 8 -12 9 -7 1 -29 4 -48 7
-68 11 -105 12 -119 1 -11 -8 -13 -8 -7 2 4 7 1 12 -9 12 -10 0 -13 -5 -9 -12
5 -7 3 -8 -7 -2 -8 4 -31 9 -51 10 -35 1 -43 -5 -39 -29 1 -5 -3 -6 -8 -2 -6
3 -8 11 -5 18 7 18 -42 17 -68 -2z m157 -1 c-3 -5 -12 -10 -18 -10 -7 0 -6 4
3 10 19 12 23 12 15 0z m-120 -10 c3 -6 -1 -7 -9 -4 -18 7 -21 14 -7 14 6 0
13 -4 16 -10z m261 -3 c4 -3 -4 -4 -16 -2 -30 6 -40 16 -12 12 12 -2 24 -6 28
-10z m-491 -57 c3 -6 -1 -7 -9 -4 -18 7 -21 14 -7 14 6 0 13 -4 16 -10z m669
2 c3 -5 -1 -9 -9 -9 -8 0 -12 4 -9 9 3 4 7 8 9 8 2 0 6 -4 9 -8z m-817 -87 c0
-8 -4 -12 -9 -9 -5 3 -6 10 -3 15 9 13 12 11 12 -6z m1023 -9 c0 -3 -4 -8 -10
-11 -5 -3 -10 -1 -10 4 0 6 5 11 10 11 6 0 10 -2 10 -4z m-1417 -21 c-3 -9 -8
-14 -10 -11 -3 3 -2 9 2 15 9 16 15 13 8 -4z m2987 11 c0 -2 -7 -7 -16 -10 -8
-3 -12 -2 -9 4 6 10 25 14 25 6z m-3680 -10 c0 -2 -7 -7 -16 -10 -8 -3 -12 -2
-9 4 6 10 25 14 25 6z m761 -13 c13 -17 13 -17 -6 -3 -11 8 -22 16 -24 17 -2
2 0 3 6 3 6 0 17 -8 24 -17z m259 -7 c0 -2 -8 -10 -17 -17 -16 -13 -17 -12 -4
4 13 16 21 21 21 13z m2645 -6 c3 -5 1 -10 -4 -10 -6 0 -11 5 -11 10 0 6 2 10
4 10 3 0 8 -4 11 -10z m-1200 -20 c3 -6 -1 -7 -9 -4 -18 7 -21 14 -7 14 6 0
13 -4 16 -10z m-2155 -20 c0 -5 -2 -10 -4 -10 -3 0 -8 5 -11 10 -3 6 -1 10 4
10 6 0 11 -4 11 -10z m2070 6 c0 -2 -7 -7 -16 -10 -8 -3 -12 -2 -9 4 6 10 25
14 25 6z m-2441 -30 c9 -11 9 -16 -1 -22 -7 -4 -10 -4 -6 1 4 4 3 14 -3 22 -6
7 -9 13 -6 13 2 0 10 -6 16 -14z m3126 4 c3 -5 2 -10 -4 -10 -5 0 -13 5 -16
10 -3 6 -2 10 4 10 5 0 13 -4 16 -10z m205 -2 c0 -6 -3 -8 -7 -5 -3 4 -13 1
-22 -6 -14 -11 -14 -10 -2 6 15 20 31 22 31 5z m-120 -2 c0 -3 -4 -8 -10 -11
-5 -3 -10 -1 -10 4 0 6 5 11 10 11 6 0 10 -2 10 -4z m434 -154 c3 -5 -1 -9 -9
-9 -8 0 -12 4 -9 9 3 4 7 8 9 8 2 0 6 -4 9 -8z m-3539 -202 c3 -5 1 -10 -4
-10 -6 0 -11 5 -11 10 0 6 2 10 4 10 3 0 8 -4 11 -10z m3380 -80 c3 -5 1 -10
-4 -10 -6 0 -11 5 -11 10 0 6 2 10 4 10 3 0 8 -4 11 -10z m-72 -91 c-8 -8 -13
-7 -18 2 -5 8 -4 10 3 5 7 -4 12 -2 12 5 0 7 3 9 7 6 4 -4 2 -12 -4 -18z m-93
-223 c0 -2 -8 -10 -17 -17 -16 -13 -17 -12 -4 4 13 16 21 21 21 13z m-106
-148 c-3 -4 -9 -8 -15 -8 -5 0 -9 4 -9 8 0 5 7 9 15 9 8 0 12 -4 9 -9z m-2821
-58 c3 -11 1 -18 -4 -14 -5 3 -9 12 -9 20 0 20 7 17 13 -6z m42 -40 c-3 -5 -1
-10 6 -10 7 0 10 -3 6 -6 -9 -9 -28 6 -22 17 4 5 8 9 11 9 3 0 2 -4 -1 -10z
m2680 0 c-3 -5 -12 -10 -18 -10 -7 0 -6 4 3 10 19 12 23 12 15 0z m-70 -59
c-12 -20 -43 -32 -51 -19 -4 7 -3 8 4 4 6 -4 19 2 29 12 19 19 30 21 18 3z
m-2425 -101 c0 -5 -2 -10 -4 -10 -3 0 -8 5 -11 10 -3 6 -1 10 4 10 6 0 11 -4
11 -10z m2210 -24 c0 -2 -8 -10 -17 -17 -16 -13 -17 -12 -4 4 13 16 21 21 21
13z m-2153 -61 c0 -8 -4 -12 -9 -9 -5 3 -6 10 -3 15 9 13 12 11 12 -6z m2213
-15 c0 -5 -5 -10 -11 -10 -5 0 -7 5 -4 10 3 6 8 10 11 10 2 0 4 -4 4 -10z
m-2433 -102 c-3 -8 -6 -5 -6 6 -1 11 2 17 5 13 3 -3 4 -12 1 -19z m-160 -101
c0 -8 -6 -14 -14 -14 -9 0 -10 4 -2 14 6 7 12 13 14 13 1 0 2 -6 2 -13z m2751
-22 c-3 -3 -9 2 -12 12 -6 14 -5 15 5 6 7 -7 10 -15 7 -18z m-2778 -34 c0 -6
-4 -12 -8 -15 -5 -3 -9 1 -9 9 0 8 4 15 9 15 4 0 8 -4 8 -9z m3020 -57 c0 -8
-19 -13 -24 -6 -3 5 1 9 9 9 8 0 15 -2 15 -3z m-3245 -24 c3 -5 1 -10 -4 -10
-6 0 -11 5 -11 10 0 6 2 10 4 10 3 0 8 -4 11 -10z m-35 -23 c0 -7 -4 -6 -10 3
-8 12 -10 12 -10 1 0 -8 -3 -12 -6 -8 -9 9 6 28 17 22 5 -4 9 -12 9 -18z
m3300 -71 c0 -3 -4 -8 -10 -11 -5 -3 -10 -1 -10 4 0 6 5 11 10 11 6 0 10 -2
10 -4z m-27 -181 c-7 -21 -12 -19 -10 4 0 11 5 18 9 15 4 -3 5 -11 1 -19z
m-3405 -180 c-3 -3 -9 2 -12 12 -6 14 -5 15 5 6 7 -7 10 -15 7 -18z m3289 9
c-3 -3 -12 -4 -19 -1 -8 3 -5 6 6 6 11 1 17 -2 13 -5z m-27 -34 c0 -5 -5 -10
-11 -10 -5 0 -7 5 -4 10 3 6 8 10 11 10 2 0 4 -4 4 -10z m-2570 -20 c0 -5 -5
-10 -11 -10 -5 0 -7 5 -4 10 3 6 8 10 11 10 2 0 4 -4 4 -10z m20 -40 c0 -5 -2
-10 -4 -10 -3 0 -8 5 -11 10 -3 6 -1 10 4 10 6 0 11 -4 11 -10z m40 -60 c0 -5
-2 -10 -4 -10 -3 0 -8 5 -11 10 -3 6 -1 10 4 10 6 0 11 -4 11 -10z m2437 -12
c-3 -8 -6 -5 -6 6 -1 11 2 17 5 13 3 -3 4 -12 1 -19z m-3142 -68 c3 -5 1 -10
-4 -10 -6 0 -11 5 -11 10 0 6 2 10 4 10 3 0 8 -4 11 -10z m45 -80 c0 -5 -7 -7
-15 -4 -8 4 -15 8 -15 10 0 2 7 4 15 4 8 0 15 -4 15 -10z m3020 -40 c0 -5 -5
-10 -11 -10 -5 0 -7 5 -4 10 3 6 8 10 11 10 2 0 4 -4 4 -10z m-1060 -20 c0 -5
-4 -10 -10 -10 -5 0 -10 5 -10 10 0 6 5 10 10 10 6 0 10 -4 10 -10z m437 -25
c0 -8 -4 -15 -9 -15 -4 0 -8 7 -8 15 0 8 4 15 8 15 5 0 9 -7 9 -15z m583 -14
c-5 -11 -16 -23 -23 -27 -8 -5 -7 -2 2 9 7 9 10 17 5 17 -5 0 -2 5 6 10 21 14
22 13 10 -9z m-2189 -68 c13 -16 12 -17 -3 -4 -10 7 -18 15 -18 17 0 8 8 3 21
-13z m2109 -13 c0 -5 -2 -10 -4 -10 -3 0 -8 5 -11 10 -3 6 -1 10 4 10 6 0 11
-4 11 -10z m-100 -56 c0 -8 -19 -13 -24 -6 -3 5 1 9 9 9 8 0 15 -2 15 -3z
m-207 -29 c-3 -9 -8 -14 -10 -11 -3 3 -2 9 2 15 9 16 15 13 8 -4z m-836 -17
c-3 -8 -6 -5 -6 6 -1 11 2 17 5 13 3 -3 4 -12 1 -19z m863 2 c0 -5 -2 -10 -4
-10 -3 0 -8 5 -11 10 -3 6 -1 10 4 10 6 0 11 -4 11 -10z m-969 -143 c-10 -9
-11 -8 -5 6 3 10 9 15 12 12 3 -3 0 -11 -7 -18z m-677 -99 c-3 -4 -9 -8 -15
-8 -5 0 -9 4 -9 8 0 5 7 9 15 9 8 0 12 -4 9 -9z m591 -58 c-3 -5 -12 -10 -18
-10 -7 0 -6 4 3 10 19 12 23 12 15 0z m-154 -113 c-10 -9 -11 -8 -5 6 3 10 9
15 12 12 3 -3 0 -11 -7 -18z"/>
</g>
</svg>
